<svg class="animated" id="freepik_stories-coffee-bean" xmlns="http://www.w3.org/2000/svg" viewBox="0 0 500 500" version="1.1" xmlns:xlink="http://www.w3.org/1999/xlink" xmlns:svgjs="http://svgjs.com/svgjs"><style>svg#freepik_stories-coffee-bean:not(.animated) .animable {opacity: 0;}svg#freepik_stories-coffee-bean.animated #freepik--Leaves--inject-82 {animation: 1.5s Infinite  linear floating;animation-delay: 0s;}            @keyframes floating {                0% {                    opacity: 1;                    transform: translateY(0px);                }                50% {                    transform: translateY(-10px);                }                100% {                    opacity: 1;                    transform: translateY(0px);                }            }        </style><g id="freepik--background-complete--inject-82" class="animable" style="transform-origin: 250px 240.033px;"><g id="elsqyfnlo4kej" class="animable" style="transform-origin: 98.5px 263.38px;"><path d="M56.78,255.27c4.09,1.98,7.3,6.73,11.09,9.25,7.46,4.97,8.62,3.8,17.13,6.62,5.62,1.86,15.1,9.4,24.43,7.85,9.69-1.61,20.85-6.46,30.5-4.6l.29-1.04s-24.03-19.86-30.25-22.58c-6.22-2.72-15.88-4.59-23.2-1.9s-8.57,6.67-15,6.69c-6.43,.01-8.96-.42-11.69-.62-2.73-.21-3.3,.33-3.3,.33Z" style="fill: rgb(235, 235, 235); transform-origin: 98.5px 263.38px;" id="elo6u83cedjjn" class="animable"></path><path d="M139.93,274.39c-27.22-19.27-43.98-5.98-72.03-15.28-3.4-1.13-6.72-2.48-9.9-4.1,9.81,4.32,20.39,6.51,31.05,6.95,3.55,.17,7.1,.08,10.67,0,14.56-.59,28.81,3.09,40.21,12.44h0Z" style="fill: rgb(224, 224, 224); transform-origin: 98.965px 264.705px;" id="elxud68e5w7s" class="animable"></path><path d="M102.64,262.61c-2.97-1.58-6.39-3.2-9.31-4.92-3.77-2.39-7.02-5.85-11.6-6.72,5.34,0,9.05,4.18,13.39,6.65,2.51,1.58,5.26,3.09,7.52,4.99h0Z" style="fill: rgb(224, 224, 224); transform-origin: 92.185px 256.79px;" id="eluoo0ff1l7n" class="animable"></path><path d="M121.09,265.39c-3.98-.49-8.2,.05-11.48,2.39-1.02,.7-1.79,1.87-2.81,2.84-1.98,1.99-4.69,3.35-7.5,3.5-2.77,.24-5.5-.08-8.19-.52,1.36,0,2.72,.06,4.08,.03,4.94,.16,9.16-1.22,12.3-5.18,3.31-3.68,9.04-4.31,13.61-3.05h0Z" style="fill: rgb(224, 224, 224); transform-origin: 106.105px 269.505px;" id="eln3xg5z50ow" class="animable"></path><path d="M126.45,266.89c-8.65-5.96-15.18-14.95-25.26-18.74,10.65,2.53,17.51,11.74,25.26,18.74h0Z" style="fill: rgb(224, 224, 224); transform-origin: 113.82px 257.52px;" id="elkqctyegy04o" class="animable"></path></g><g id="elwkvtlmjyxbs" class="animable" style="transform-origin: 426.735px 206.704px;"><path d="M472.72,189.46c-4.31,3-7.12,9-10.98,12.56-7.62,7.02-9.15,5.89-18.36,10.64-6.08,3.14-15.54,13.45-26.47,13.36-11.35-.09-24.97-3.61-35.64,.25l-.52-1.13s23.85-27,30.45-31.22c6.61-4.23,17.3-8.1,26.14-6.35,8.84,1.76,10.98,6.07,18.32,4.93,7.34-1.14,10.15-2.09,13.23-2.82s3.83-.22,3.83-.22Z" style="fill: rgb(235, 235, 235); transform-origin: 426.735px 206.704px;" id="elhvs0frq0t5" class="animable"></path><path d="M381.27,226.27c11.47-12.73,26.83-19.38,43.65-21.36,4.09-.54,8.15-1.08,12.18-1.92,12.1-2.44,23.78-6.86,34.17-13.6-3.35,2.42-6.9,4.54-10.58,6.43-11.08,5.66-23.37,8.6-35.65,10.07-16.58,1.83-31.98,8.39-43.79,20.38h0Z" style="fill: rgb(224, 224, 224); transform-origin: 426.26px 207.83px;" id="elc8g1knywdm4" class="animable"></path><path d="M421.7,206.1c-.03-.08,.15-.22,.23-.31l.31-.32c.38-.38,1.5-1.42,1.91-1.8,1.55-1.36,3.72-3.27,5.28-4.57,4.51-3.59,7.97-9.01,14.04-10.06-5.11,1.74-8.21,6.28-12.08,9.7-1.32,1.06-2.78,2.22-4.14,3.22-.92,.68-3.31,2.47-4.22,3.11l-.7,.52c-.13,.12-.59,.38-.63,.52h0Z" style="fill: rgb(224, 224, 224); transform-origin: 432.583px 197.575px;" id="elcjivhsjwgdc" class="animable"></path><path d="M401.15,212.61c4.99-2.19,11.61-2.5,16.03,1.09,4.42,4.02,9.29,4.76,15.02,3.68,1.55-.22,3.09-.54,4.64-.8-3,.95-6.05,1.8-9.26,2.01-3.22,.31-6.54-.74-9.14-2.65-1.33-.91-2.42-2.12-3.74-2.73-4.18-2.07-9.11-1.91-13.56-.59h0Z" style="fill: rgb(224, 224, 224); transform-origin: 418.99px 214.811px;" id="elyd61ectizg" class="animable"></path><path d="M395.31,215.29c7.67-9.32,13.81-21.05,25.45-25.95-10.88,6.07-16.72,17.51-25.45,25.95h0Z" style="fill: rgb(224, 224, 224); transform-origin: 408.035px 202.315px;" id="elydc04569rmr" class="animable"></path></g><g id="elo9x8dfle87d" class="animable" style="transform-origin: 151.545px 122.739px;"><path d="M107.71,71.91c3.28,6.31,2.86,15.26,5.25,21.95,4.71,13.2,7.25,12.82,15.29,24.3,5.3,7.58,10.14,25.88,23.28,32.67,13.65,7.04,32.17,11.39,42.52,22.74l1.33-1.03s-11.56-47.34-16.81-56.56c-5.25-9.22-15.62-20.6-27.31-24.06-11.69-3.46-16.98,.35-25.04-5.63-8.07-5.99-10.84-8.89-14.07-11.71s-4.44-2.67-4.44-2.67Z" style="fill: rgb(235, 235, 235); transform-origin: 151.545px 122.739px;" id="elrtlnsivlrsk" class="animable"></path><path d="M194.05,173.56c-4.91-16.03-13.88-30.65-26.44-41.77-4.11-3.74-8.52-7.15-13.06-10.35-9.17-6.36-17.98-13.37-25.69-21.5-7.7-8.11-14.33-17.26-19.38-27.23,5.43,9.75,12.16,18.74,19.95,26.68,7.76,8.01,16.53,14.9,25.69,21.24,19.05,13.13,32.95,30.31,38.93,52.93h0Z" style="fill: rgb(224, 224, 224); transform-origin: 151.765px 123.135px;" id="elusst3r31g8" class="animable"></path><path d="M158.34,123.96c.1,.11-.05-.22-.04-.22-.07-.17-.29-.64-.37-.81-.91-1.92-2.61-5.52-3.51-7.48-.97-2.06-1.98-4.37-2.89-6.47-1.55-3.57-2.09-7.64-3.64-11.22-1.15-2.89-2.7-5.64-4.87-7.93,2.47,2,4.25,4.76,5.58,7.63,1.79,3.59,2.31,7.47,3.84,11.14,.88,2.12,1.86,4.43,2.7,6.54,.9,2.28,2.4,5.98,3.13,8.29l.08,.28,.03,.14s.03,.15-.03,.09h0Z" style="fill: rgb(224, 224, 224); transform-origin: 150.704px 106.906px;" id="elyrxrkq5dmu" class="animable"></path><path d="M178.85,144.68c-4.42-4.47-10.27-7.81-16.61-8.01-2.09-.08-4.13,.69-6.22,.93-4.29,.62-8.86-.18-12.53-2.53-3.7-2.23-6.85-5.15-9.89-8.11,1.66,1.33,3.3,2.69,5,3.95,6.48,5.1,12.2,7.18,20.4,5.17,7.53-1.5,15.18,2.93,19.85,8.6h0Z" style="fill: rgb(224, 224, 224); transform-origin: 156.225px 135.82px;" id="elk62386ch10d" class="animable"></path><path d="M184.16,151.57c-2.42-7.91-3.78-16.11-5.33-24.22-1.55-8.05-4.37-15.95-8.81-22.88,10.65,13.35,10.57,31.12,14.14,47.1h0Z" style="fill: rgb(224, 224, 224); transform-origin: 177.09px 128.02px;" id="eluq24317aigd" class="animable"></path></g><g id="ellbbck3qlei" class="animable" style="transform-origin: 74.8811px 386.212px;"><g id="elbgnptf7unxo" class="animable" style="transform-origin: 74.8811px 386.212px;"><path d="M92.27,407.34c-.2,.12-19.23,11.17-35.01-7.4-17.48-20.56-.49-34.74-.49-34.74l35.5,42.14Z" style="fill: rgb(224, 224, 224); transform-origin: 70.816px 387.956px;" id="elmpkj59y4q7" class="animable"></path><path d="M95.21,403.81s-4.59,10.55-22.07-.15c-17.48-10.69-21.81-24.73-19.5-32.62,2.3-7.89,6.23-6.46,6.23-6.46,0,0,.46-2.26,6.16-2.8,5.71-.54,18.26,1.95,28.07,16.01,8.69,12.45,7.74,23.52,1.11,26.03Z" style="fill: rgb(240, 240, 240); transform-origin: 76.734px 385.084px;" id="ellsy8o3x1i1" class="animable"></path><path d="M95.54,404.11c-7.64-2.61-13.97-8.65-16.03-16.45-.59-2.25-.91-4.6-1.6-6.88-.7-2.36-1.94-4.61-3.54-6.48-1.55-1.85-3.51-3.43-5.54-4.69-3-1.88-6.1-3.59-9.29-5.12,2.81,2.14,5.69,4.14,8.47,6.3,2.7,1.99,5.14,4.55,6.65,7.52,2.13,4.07,1.96,9.19,4.09,13.36,3.11,6.51,9.7,11.48,16.79,12.44h0Z" style="fill: rgb(224, 224, 224); transform-origin: 77.54px 384.3px;" id="el8ruo3cecqu5" class="animable"></path><g id="elazeer29ssdn"><g style="opacity: 0.3; transform-origin: 86.825px 383.519px;" class="animable"><path d="M76.51,366.84c.66-.04,1.23,.3,1.77,.64,5.79,3.63,11.39,7.82,15.27,13.35,3.11,4.45,4.98,9.91,4.53,15.12-.29,3.32-3.98,5.32-7.01,3.65-.1-.05-.2-.11-.29-.17-3.75-2.37-5.19-7-5.81-11.26-.63-4.26-.8-8.76-3.11-12.49-1.54-2.5-3.91-4.41-5.78-6.7-.38-.47-.77-1.07-.47-1.62,.17-.32,.53-.5,.91-.52Z" style="fill: rgb(255, 255, 255); transform-origin: 86.825px 383.519px;" id="el392o7m2r4kr" class="animable"></path></g></g><g id="elwuzec6bxbu"><g style="opacity: 0.3; transform-origin: 71.3631px 365.562px;" class="animable"><path d="M72,364.42l.17,.11c.7,.53,.57,1.81-.22,2.19-.79,.38-1.87-.32-1.85-1.19,.02-.88,1.13-1.52,1.9-1.1Z" style="fill: rgb(255, 255, 255); transform-origin: 71.3631px 365.562px;" id="elqet7okaudzd" class="animable"></path></g></g><g id="elp4abli2p5c8"><g style="opacity: 0.3; transform-origin: 64.4158px 374.93px;" class="animable"><path d="M56.95,369.22v-.02c.57-1.21,2.03-1.69,3.25-1.15,4.01,1.78,8.19,4.87,10.7,8.29,.72,.98,1.38,2.05,1.35,3.31-.01,.47-.14,.94-.4,1.33-.84,1.27-2.43,1.15-3.77,.86-2.64-.56-5.25-1.51-7.38-3.16-2.13-1.66-3.76-4.08-4.07-6.76-.11-.91-.05-1.86,.32-2.69Z" style="fill: rgb(255, 255, 255); transform-origin: 64.4158px 374.93px;" id="elaazm4vrgnxg" class="animable"></path></g></g></g><g id="elz7cvqfdeold"><path d="M66.17,394.72c5.67,5.59,12.9,9.52,20.71,11.08l1.68,.32c.57,.07,1.13,.16,1.7,.25-.57,.01-1.15,.02-1.73,.01-8.66-.3-17.23-4.66-22.37-11.67h0Z" style="fill: rgb(255, 255, 255); opacity: 0.3; transform-origin: 78.21px 400.547px;" class="animable"></path></g></g><g id="ellj4v2ifwuic" class="animable" style="transform-origin: 330.735px 87.2781px;"><g id="elqivu5mssk3k" class="animable" style="transform-origin: 330.735px 87.2781px;"><path d="M361.09,84.15c-.02,.25-2.31,24.47-29.16,26.73-29.72,2.5-31.55-21.89-31.55-21.89l60.71-4.84Z" style="fill: rgb(224, 224, 224); transform-origin: 330.735px 97.6049px;" id="eldwlbl32zdmv" class="animable"></path><path d="M359.8,79.23s6.53,10.91-14.32,19.75c-20.85,8.84-36.25,3.71-41.87-3.43-5.62-7.15-1.81-9.76-1.81-9.76,0,0-1.74-1.86,1.44-7.34,3.18-5.48,13.49-15.17,32.44-14.95,16.78,.19,26.13,8.16,24.11,15.73Z" style="fill: rgb(240, 240, 240); transform-origin: 330.653px 83.5793px;" id="elj6dxfbcnw1" class="animable"></path><path d="M360.29,79.13c-7.25,5.19-16.76,7-25.09,3.84-2.41-.92-4.72-2.14-7.21-2.98-2.57-.89-5.39-1.21-8.1-.98-2.66,.2-5.33,.95-7.77,1.97-3.62,1.49-7.15,3.18-10.58,5.06,3.73-1.15,7.38-2.45,11.1-3.57,3.53-1.15,7.39-1.7,11.04-1.14,5.02,.7,9.53,4.14,14.64,4.9,7.85,1.39,16.56-1.35,21.97-7.1h0Z" style="fill: rgb(224, 224, 224); transform-origin: 330.915px 82.7622px;" id="elji1xhiuje6s" class="animable"></path><g id="elzuaqv2f36n"><g style="opacity: 0.3; transform-origin: 335.364px 73.5809px;" class="animable"><path d="M314.55,72.28c.39-.62,1.07-.91,1.72-1.18,6.99-2.87,14.35-5.22,21.82-5.14,6,.06,12.11,1.89,16.51,5.65,2.8,2.39,2.23,7-1.23,8.65-.11,.05-.23,.1-.34,.15-4.54,1.85-9.62,.17-13.86-2.01-4.23-2.18-8.39-4.91-13.22-5.23-3.24-.22-6.48,.68-9.74,.89-.67,.04-1.46,0-1.76-.62-.18-.36-.11-.8,.11-1.15Z" style="fill: rgb(255, 255, 255); transform-origin: 335.364px 73.5809px;" id="eleztywuoei1" class="animable"></path></g></g><g id="ell3nbef1kzj"><g style="opacity: 0.3; transform-origin: 310.123px 76.0422px;" class="animable"><path d="M309.48,74.78l.2-.08c.93-.29,1.99,.65,1.82,1.6-.17,.95-1.48,1.48-2.26,.89s-.64-1.99,.23-2.42Z" style="fill: rgb(255, 255, 255); transform-origin: 310.123px 76.0422px;" id="elez15fpaglut" class="animable"></path></g></g><g id="elg02udqrtbuh"><g style="opacity: 0.3; transform-origin: 314.101px 89.0405px;" class="animable"><path d="M304.12,91.4v-.03c-.74-1.28-.24-2.9,1.03-3.65,4.18-2.47,9.64-4.23,14.33-4.29,1.34-.02,2.72,.08,3.84,.92,.41,.31,.75,.73,.94,1.21,.6,1.58-.53,2.92-1.65,3.95-2.2,2.02-4.73,3.75-7.59,4.6-2.86,.85-6.08,.76-8.69-.68-.88-.49-1.7-1.14-2.21-2.02Z" style="fill: rgb(255, 255, 255); transform-origin: 314.101px 89.0405px;" id="elld77gyw0u4m" class="animable"></path></g></g></g><g id="el1wx7qafibtf"><path d="M332.97,99.5c8.69-1.44,16.9-5.42,23.29-11.48,.81-.76,1.91-1.9,2.67-2.69-.36,.52-.73,1.04-1.11,1.55-5.88,7.55-15.26,12.43-24.85,12.62h0Z" style="fill: rgb(255, 255, 255); opacity: 0.3; transform-origin: 345.95px 92.415px;" class="animable"></path></g></g><g id="elg13zd2h3r9n" class="animable" style="transform-origin: 377.355px 403.536px;"><g id="elyniwun029zf" class="animable" style="transform-origin: 377.355px 403.536px;"><path d="M403.94,398.71c0,.22-.33,21.73-23.83,25.59-26.02,4.28-29.34-17.09-29.34-17.09l53.16-8.51Z" style="fill: rgb(224, 224, 224); transform-origin: 377.355px 411.783px;" id="elnp4uacu5saf" class="animable"></path><path d="M402.46,394.48s6.52,9.16-11.24,18.41c-17.76,9.25-31.69,5.8-37.14-.1-5.45-5.9-2.27-8.47-2.27-8.47,0,0-1.66-1.52,.76-6.57,2.42-5.05,10.83-14.31,27.54-15.44,14.8-1,23.59,5.36,22.35,12.18Z" style="fill: rgb(240, 240, 240); transform-origin: 377.258px 400.402px;" id="eldqwqo7nntne" class="animable"></path><path d="M402.88,394.35c-6.03,5.08-14.28,7.34-21.84,5.14-2.19-.64-4.31-1.55-6.57-2.12-2.33-.6-4.84-.69-7.21-.3-2.33,.36-4.64,1.21-6.71,2.28-3.09,1.56-6.08,3.3-8.97,5.2,3.2-1.28,6.33-2.68,9.54-3.92,3.03-1.26,6.39-2.01,9.65-1.78,4.48,.26,8.69,2.99,13.25,3.3,7.02,.67,14.5-2.34,18.87-7.79h0Z" style="fill: rgb(224, 224, 224); transform-origin: 377.235px 399.45px;" id="elzsjm59fzki" class="animable"></path><g id="elmsicerg1j2"><g style="opacity: 0.3; transform-origin: 380.567px 390.623px;" class="animable"><path d="M362.09,391.51c.3-.57,.88-.88,1.43-1.16,5.96-3.02,12.29-5.6,18.87-6.06,5.29-.37,10.8,.82,14.94,3.83,2.64,1.92,2.45,6.01-.48,7.71-.1,.06-.19,.11-.29,.16-3.88,1.95-8.47,.82-12.35-.8-3.88-1.62-7.74-3.74-12.02-3.69-2.87,.03-5.67,1.05-8.52,1.46-.59,.08-1.29,.1-1.6-.42-.18-.31-.15-.7,.02-1.02Z" style="fill: rgb(255, 255, 255); transform-origin: 380.567px 390.623px;" id="el6x470y5q5lo" class="animable"></path></g></g><g id="elqxsesx4qhqm"><g style="opacity: 0.3; transform-origin: 358.463px 395.151px;" class="animable"><path d="M357.8,394.07l.17-.08c.8-.32,1.8,.43,1.72,1.29-.08,.85-1.2,1.4-1.93,.94-.72-.46-.7-1.71,.04-2.15Z" style="fill: rgb(255, 255, 255); transform-origin: 358.463px 395.151px;" id="el8e2qaled5mn" class="animable"></path></g></g><g id="ellq8emxh8lgk"><g style="opacity: 0.3; transform-origin: 362.808px 406.205px;" class="animable"><path d="M354.23,409.09v-.02c-.74-1.08-.41-2.54,.65-3.29,3.51-2.47,8.2-4.4,12.33-4.79,1.18-.11,2.41-.12,3.45,.54,.39,.25,.71,.59,.91,1,.64,1.35-.27,2.61-1.18,3.59-1.8,1.93-3.91,3.63-6.37,4.59-2.46,.95-5.31,1.09-7.71,0-.81-.37-1.58-.89-2.09-1.63Z" style="fill: rgb(255, 255, 255); transform-origin: 362.808px 406.205px;" id="elmzgaigi6aab" class="animable"></path></g></g></g><g id="elnk0ghkj5hqe"><path d="M380.22,414.21c7.53-1.94,14.46-6.01,19.71-11.76l1.12-1.25c.35-.44,.7-.87,1.07-1.3-.28,.49-.56,.97-.86,1.45-4.61,7.11-12.58,12.09-21.04,12.85h0Z" style="fill: rgb(255, 255, 255); opacity: 0.3; transform-origin: 391.17px 407.055px;" class="animable"></path></g></g><g id="el0nh9bjqfuel" class="animable" style="transform-origin: 415.247px 146.453px;"><g id="elye2cl0f44us" class="animable" style="transform-origin: 415.247px 146.453px;"><path d="M424.49,161.04c-.13,.06-12.81,5.39-21.11-7.38-9.19-14.14,2.47-21.57,2.47-21.57l18.64,28.94Z" style="fill: rgb(224, 224, 224); transform-origin: 412.17px 147.142px;" id="el94fntjyq65p" class="animable"></path><path d="M426.59,159.09s-3.69,6.17-13.66-1.85c-9.98-8.02-11.54-17.06-9.48-21.77,2.06-4.71,4.38-3.51,4.38-3.51,0,0,.46-1.36,4.04-1.24,3.58,.12,11.16,2.66,16.12,12.16,4.39,8.41,2.92,15.19-1.39,16.22Z" style="fill: rgb(240, 240, 240); transform-origin: 416.651px 146.035px;" id="elvavzosjyssr" class="animable"></path><path d="M426.77,159.3c-4.53-2.22-7.97-6.47-8.62-11.47-.19-1.44-.2-2.92-.44-4.39-.25-1.52-.84-3.01-1.68-4.3-.81-1.27-1.9-2.4-3.06-3.35-1.71-1.41-3.49-2.71-5.35-3.91,1.57,1.55,3.19,3.02,4.75,4.58,1.51,1.45,2.82,3.23,3.52,5.19,1,2.69,.48,5.85,1.47,8.6,1.41,4.28,5.1,7.89,9.41,9.04h0Z" style="fill: rgb(224, 224, 224); transform-origin: 417.195px 145.59px;" id="el424pazrckek" class="animable"></path><g id="el09n8nh1cav3"><g style="opacity: 0.3; transform-origin: 423.253px 145.712px;" class="animable"><path d="M417.96,134.69c.41,.03,.74,.29,1.05,.54,3.3,2.71,6.44,5.75,8.39,9.49,1.57,3.01,2.29,6.54,1.6,9.73-.44,2.04-2.89,2.98-4.64,1.7-.06-.04-.11-.09-.17-.13-2.14-1.77-2.66-4.75-2.7-7.44-.05-2.69,.2-5.49-.93-7.98-.76-1.67-2.07-3.05-3.05-4.61-.2-.32-.39-.73-.16-1.04,.13-.18,.37-.27,.6-.25Z" style="fill: rgb(255, 255, 255); transform-origin: 423.253px 145.712px;" id="elioc9wem8r7" class="animable"></path></g></g><g id="elhz9w4w98eb"><g style="opacity: 0.3; transform-origin: 414.862px 133.492px;" class="animable"><path d="M415.35,132.83l.09,.08c.39,.38,.21,1.16-.31,1.34-.52,.17-1.13-.34-1.05-.89,.08-.54,.82-.85,1.27-.53Z" style="fill: rgb(255, 255, 255); transform-origin: 414.862px 133.492px;" id="eldpzulwk1kmd" class="animable"></path></g></g><g id="elovxwihx79u"><g style="opacity: 0.3; transform-origin: 409.763px 138.742px;" class="animable"><path d="M405.64,134.61h0c.44-.72,1.39-.9,2.1-.47,2.35,1.42,4.69,3.67,5.97,5.99,.37,.66,.69,1.38,.57,2.16-.04,.29-.16,.57-.35,.79-.63,.72-1.6,.52-2.41,.23-1.59-.56-3.13-1.35-4.32-2.55-1.19-1.2-2-2.82-1.98-4.51,0-.57,.11-1.15,.42-1.64Z" style="fill: rgb(255, 255, 255); transform-origin: 409.763px 138.742px;" id="elhx7cgjrgqy9" class="animable"></path></g></g></g><g id="elx5pm3yz9eqk"><path d="M409.32,151.14c3.77,4.38,8.48,7.44,14,9.14-5.77-.24-11.45-3.96-14-9.14h0Z" style="fill: rgb(255, 255, 255); opacity: 0.3; transform-origin: 416.32px 155.71px;" class="animable"></path></g></g><g id="eld2f2zbqa70p" class="animable" style="transform-origin: 79.9462px 162.498px;"><g id="elydczc5nxox" class="animable" style="transform-origin: 79.9462px 162.498px;"><path d="M94.3,187.56c-.22,.08-21.75,7.96-34.56-13.95-14.19-24.26,5.81-35.71,5.81-35.71l28.75,49.66Z" style="fill: rgb(224, 224, 224); transform-origin: 74.4764px 163.452px;" id="elprrhd2cm4va" class="animable"></path><path d="M97.95,184.47s-6.62,9.98-22.6-4.16c-15.98-14.14-17.87-29.32-14.07-37,3.8-7.68,7.56-5.5,7.56-5.5,0,0,.88-2.23,6.83-1.75,5.95,.48,18.37,5.31,25.87,21.51,6.64,14.35,3.67,25.53-3.59,26.89Z" style="fill: rgb(240, 240, 240); transform-origin: 82.425px 161.941px;" id="els0sd2s801xa" class="animable"></path><path d="M98.23,184.84c-7.36-4.06-12.76-11.41-13.45-19.78-.2-2.42-.1-4.88-.39-7.34-.29-2.55-1.16-5.08-2.46-7.29-1.25-2.18-2.97-4.15-4.83-5.81-2.73-2.48-5.6-4.79-8.59-6.94,2.49,2.7,5.08,5.28,7.54,7.99,2.41,2.54,4.44,5.59,5.45,8.92,1.44,4.56,.34,9.78,1.77,14.44,2.01,7.24,7.87,13.53,14.95,15.8h0Z" style="fill: rgb(224, 224, 224); transform-origin: 83.37px 161.26px;" id="eleyqpwyev6ml" class="animable"></path><g id="elsd89u7lsd2b"><g style="opacity: 0.3; transform-origin: 93.6292px 161.852px;" class="animable"><path d="M85.5,143.17c.68,.08,1.21,.54,1.7,.98,5.28,4.78,10.26,10.09,13.23,16.47,2.38,5.13,3.3,11.06,1.89,16.33-.9,3.36-5.05,4.74-7.85,2.47-.09-.07-.18-.15-.27-.23-3.42-3.11-4.05-8.11-3.91-12.6,.13-4.48,.77-9.13-.92-13.37-1.13-2.84-3.21-5.24-4.71-7.92-.31-.55-.59-1.24-.19-1.75,.24-.3,.64-.42,1.02-.37Z" style="fill: rgb(255, 255, 255); transform-origin: 93.6292px 161.852px;" id="elwpgssmnj7ch" class="animable"></path></g></g><g id="el76i09rjtygo"><g style="opacity: 0.3; transform-origin: 80.4545px 140.934px;" class="animable"><path d="M81.31,139.87l.15,.14c.62,.67,.26,1.95-.62,2.2-.88,.25-1.86-.66-1.68-1.56,.18-.9,1.43-1.35,2.15-.78Z" style="fill: rgb(255, 255, 255); transform-origin: 80.4545px 140.934px;" id="eljaw17dk8k5q" class="animable"></path></g></g><g id="eloq01r9536j"><g style="opacity: 0.3; transform-origin: 71.5243px 149.264px;" class="animable"><path d="M65,142.05l.02-.02c.8-1.13,2.38-1.37,3.53-.59,3.79,2.55,7.51,6.48,9.47,10.44,.56,1.13,1.04,2.35,.78,3.64-.1,.48-.31,.93-.65,1.29-1.1,1.15-2.7,.73-4.02,.2-2.61-1.05-5.11-2.5-6.99-4.59-1.89-2.09-3.11-4.86-2.95-7.67,.06-.95,.28-1.91,.82-2.7Z" style="fill: rgb(255, 255, 255); transform-origin: 71.5243px 149.264px;" id="elnuv3jclv6n" class="animable"></path></g></g></g><g id="elzf3j8u2onp"><path d="M69.83,169.87c4.78,6.78,11.48,12.13,19.22,15.14l1.67,.63c.57,.18,1.13,.36,1.7,.56-.59-.09-1.18-.19-1.77-.31-8.82-1.9-16.8-7.92-20.82-16.02h0Z" style="fill: rgb(255, 255, 255); opacity: 0.3; transform-origin: 81.125px 178.035px;" class="animable"></path></g></g><g id="elaqsjly6kem9" class="animable" style="transform-origin: 250px 235.135px;"><g id="eld4qjeabchd6" class="animable" style="transform-origin: 250px 223.36px;"><g id="el5yu0h3il11h" class="animable" style="transform-origin: 249.335px 192.7px;"><path d="M443.92,330.2h-180.75c-3.23,0-5.86-2.63-5.86-5.86V61.06c0-3.23,2.63-5.86,5.86-5.86h180.75c3.23,0,5.86,2.63,5.86,5.86V324.34c0,3.23-2.63,5.86-5.86,5.86ZM263.17,55.45c-3.09,0-5.61,2.52-5.61,5.61V324.34c0,3.09,2.52,5.61,5.61,5.61h180.75c3.09,0,5.61-2.52,5.61-5.61V61.06c0-3.09-2.52-5.61-5.61-5.61h-180.75Z" style="fill: rgb(224, 224, 224); transform-origin: 353.545px 192.7px;" id="elvarnrf9jkgc" class="animable"></path><path d="M235.49,330.2H54.75c-3.23,0-5.86-2.63-5.86-5.86V61.06c0-3.23,2.63-5.86,5.86-5.86H235.49c3.23,0,5.86,2.63,5.86,5.86V324.34c0,3.23-2.63,5.86-5.86,5.86ZM54.75,55.45c-3.09,0-5.61,2.52-5.61,5.61V324.34c0,3.09,2.52,5.61,5.61,5.61H235.49c3.09,0,5.61-2.52,5.61-5.61V61.06c0-3.09-2.52-5.61-5.61-5.61H54.75Z" style="fill: rgb(224, 224, 224); transform-origin: 145.12px 192.7px;" id="el44enww9hvxy" class="animable"></path></g><rect x="0" y="391.27" width="500" height=".25" style="fill: rgb(224, 224, 224); transform-origin: 250px 391.395px;" id="el0dj9jaeui1w6" class="animable"></rect></g><rect x="51.67" y="405.53" width="16.06" height=".25" style="fill: rgb(224, 224, 224); transform-origin: 59.7px 405.655px;" id="el32srysjnxjg" class="animable"></rect><rect x="170.35" y="402.82" width="53.53" height=".25" style="fill: rgb(224, 224, 224); transform-origin: 197.115px 402.945px;" id="elh21517dgken" class="animable"></rect><rect x="68.73" y="414.82" width="36.25" height=".25" style="fill: rgb(224, 224, 224); transform-origin: 86.855px 414.945px;" id="elfashb2bhwnt" class="animable"></rect><rect x="378.35" y="402.69" width="43.19" height=".25" style="fill: rgb(224, 224, 224); transform-origin: 399.945px 402.815px;" id="el43ola20dwm9" class="animable"></rect><rect x="430.45" y="402.69" width="6.33" height=".25" style="fill: rgb(224, 224, 224); transform-origin: 433.615px 402.815px;" id="elyexyi3l64l" class="animable"></rect><rect x="316.21" y="408.92" width="53.89" height=".25" style="fill: rgb(224, 224, 224); transform-origin: 343.155px 409.045px;" id="eldrrfz5jg1p" class="animable"></rect></g></g><g id="freepik--Shadow--inject-82" class="animable" style="transform-origin: 250px 448.39px;"><path d="M458.88,448.39c0,3.39-93.52,6.13-208.88,6.13s-208.88-2.75-208.88-6.13,93.52-6.13,208.88-6.13,208.88,2.75,208.88,6.13Z" style="fill: rgb(245, 245, 245); transform-origin: 250px 448.39px;" id="elxcd6pbonbe" class="animable"></path></g><g id="freepik--Leaves--inject-82" class="animable" style="transform-origin: 248.4px 229.065px;"><g id="elh6hguly499m" class="animable" style="transform-origin: 248.4px 229.065px;"><path d="M217.11,265.85c15.03,19.73,28.06,42.77,32.71,67.35,.57,3.55,.97,7.14,1.03,10.73-2.47-27.74-18.28-55.4-33.74-78.08h0Z" style="fill: rgb(38, 50, 56); transform-origin: 233.98px 304.89px;" id="el5n938z06n55" class="animable"></path><g id="elgwfildkms4" class="animable" style="transform-origin: 177.95px 220.585px;"><g id="eliqbbfingo9" class="animable" style="transform-origin: 177.95px 220.58px;"><path d="M121.41,151.54c4.14,8.49,3.28,20.38,6.22,29.36,5.81,17.71,9.2,17.28,19.49,32.82,6.79,10.26,12.59,34.75,29.83,44.22,17.9,9.83,42.37,16.25,55.74,31.68l1.8-1.32s-13.74-63.32-20.4-75.76-20.05-27.91-35.47-32.91c-15.42-5-22.58-.11-33.09-8.35-10.52-8.23-14.1-12.19-18.3-16.04s-5.82-3.7-5.82-3.7Z" style="fill: rgb(38, 50, 56); transform-origin: 177.95px 220.58px;" id="elbv1nyhfot9l" class="animable"></path><g id="eluhixoxepa0i"><g style="opacity: 0.2; transform-origin: 177.95px 220.58px;" class="animable"><path d="M121.41,151.54c4.14,8.49,3.28,20.38,6.22,29.36,5.81,17.71,9.2,17.28,19.49,32.82,6.79,10.26,12.59,34.75,29.83,44.22,17.9,9.83,42.37,16.25,55.74,31.68l1.8-1.32s-13.74-63.32-20.4-75.76-20.05-27.91-35.47-32.91c-15.42-5-22.58-.11-33.09-8.35-10.52-8.23-14.1-12.19-18.3-16.04s-5.82-3.7-5.82-3.7Z" style="fill: rgb(255, 255, 255); transform-origin: 177.95px 220.58px;" id="elq57bfb7hdl" class="animable"></path></g></g></g><path d="M232.68,289.62c-8.53-28.3-27.63-52.9-50.78-70.9-17.95-13.03-34.58-28.35-47.06-46.81-4.15-6.14-7.86-12.57-11.09-19.23,6.77,13.15,15.4,25.31,25.43,36.16,5.02,5.41,10.33,10.55,15.92,15.38,11.16,9.71,23.92,17.59,33.98,28.57,15.29,16.03,27.86,35.31,33.61,56.84h0Z" style="fill: rgb(38, 50, 56); transform-origin: 178.22px 221.155px;" id="elmtmmcltsl6c" class="animable"></path><path d="M186.91,222.47c-11.36-12.95-7.46-33.14-19.2-45.88,1.58,1.39,2.92,3.04,4.1,4.79,8.12,12.49,6.19,28.99,15.1,41.09h0Z" style="fill: rgb(38, 50, 56); transform-origin: 177.31px 199.53px;" id="elqykrg4c4jef" class="animable"></path><path d="M213.46,250.72c-5.65-6.16-13.33-10.89-21.77-11.37-2.77-.15-5.53,.37-8.34,.76-5.67,1.03-11.69-.29-16.47-3.5-4.84-3.05-8.96-6.99-12.94-10.99,2.14,1.85,4.25,3.73,6.46,5.48,6.45,5.34,14.16,9.84,22.82,8.03,2.78-.35,5.62-.86,8.52-.67,8.61,.54,16.46,5.65,21.73,12.28h0Z" style="fill: rgb(38, 50, 56); transform-origin: 183.705px 238.18px;" id="el1fqtutil2tm" class="animable"></path><path d="M220.29,260.06c-2.58-10.68-4.33-21.57-6.09-32.4-1.8-10.76-5.3-21.38-11.09-30.68,6.51,8.93,10.17,19.7,12.07,30.52l2.5,16.29c.63,4.05,1.94,12.23,2.6,16.27h0Z" style="fill: rgb(38, 50, 56); transform-origin: 211.7px 228.52px;" id="el3qe7l2myc4" class="animable"></path></g><g id="elq7mwo8sthu" class="animable" style="transform-origin: 315.282px 272.685px;"><path d="M237.82,436.9c1.32-87.82,33.07-174.08,86.1-243.79l11.75-14.64,12.38-14.11-12.19,14.26-11.55,14.78c-52.52,69.93-83.98,155.91-86.49,243.5h0Z" style="fill: rgb(38, 50, 56); transform-origin: 292.935px 300.63px;" id="elneexsbxrtp" class="animable"></path><path d="M392.68,108.48c-8.38,7.36-22.18,10.08-31.49,16.23-18.36,12.13-16.82,15.86-31.31,32.41-9.57,10.93-35.65,25.16-41.07,47.74-5.62,23.44-8,53.54-16.65,74.99h0s67.83-35.37,79.92-46.83c12.08-11.46,25.54-31.53,26.43-50.64,.89-19.12-6.9-25.75-.8-40.29,6.1-14.54,9.49-19.85,12.57-25.84s2.4-7.78,2.4-7.78Z" style="fill: rgb(38, 50, 56); transform-origin: 332.452px 194.16px;" id="el8b29kusrwjr" class="animable"></path><g id="elgkoacw1j9ie"><g style="opacity: 0.1; transform-origin: 332.452px 194.16px;" class="animable"><path d="M392.68,108.48c-8.38,7.36-22.18,10.08-31.49,16.23-18.36,12.13-16.82,15.86-31.31,32.41-9.57,10.93-35.65,25.16-41.07,47.74-5.62,23.44-8,53.54-16.65,74.99h0s67.83-35.37,79.92-46.83c12.08-11.46,25.54-31.53,26.43-50.64,.89-19.12-6.9-25.75-.8-40.29,6.1-14.54,9.49-19.85,12.57-25.84s2.4-7.78,2.4-7.78Z" style="fill: rgb(255, 255, 255); transform-origin: 332.452px 194.16px;" id="els9st1xch35" class="animable"></path></g></g><path d="M272.95,277.86c21.42-27.32,40.53-56.44,56.9-87.05,6.19-11.45,12.16-23.08,19.21-34.05,11.74-18.45,29.81-31.58,43.63-48.28-5.47,6.75-11.55,12.97-17.61,19.18-9.03,9.33-18.56,18.35-25.32,29.53-6.96,11.01-12.9,22.59-19.03,34.07-16.4,30.64-35.71,59.73-57.77,86.59h0Z" style="fill: rgb(38, 50, 56); transform-origin: 332.82px 193.17px;" id="elc5g70l2bvqr" class="animable"></path><path d="M306.98,230.49c13.46-17.64,37.84-17.12,57.41-22.63,2.89-.78,5.72-1.75,8.5-2.88-2.69,1.34-5.51,2.4-8.36,3.35-19.44,6.24-43.22,5.51-57.55,22.16h0Z" style="fill: rgb(38, 50, 56); transform-origin: 339.935px 217.735px;" id="eleh8hp7jdsam" class="animable"></path><path d="M323.52,204.27c1.89-7.93,3.76-15.92,3.96-24.09,.26-7.06-.93-14.57,2.05-21.3,.41-.94,.83-1.88,1.26-2.8-1.49,3.82-2.45,7.82-2.53,11.86-.05,4.04,.37,8.15,.22,12.27-.3,8.24-2.29,16.29-4.96,24.06h0Z" style="fill: rgb(38, 50, 56); transform-origin: 327.155px 180.175px;" id="el378jvja29dp" class="animable"></path><path d="M341.98,170.08c2.69-6.72,9.57-10.72,16.09-13.08,4.98-1.74,9.96-3.43,14.16-6.67,1.4-1.05,2.67-2.26,3.9-3.52-1.08,1.39-2.29,2.69-3.62,3.87-4.03,3.52-9.15,5.51-14.1,7.25-6.44,2.45-12.97,5.92-16.43,12.16h0Z" style="fill: rgb(38, 50, 56); transform-origin: 359.055px 158.45px;" id="ely1cfmgkmegm" class="animable"></path><path d="M291.36,253.34c5.09-17.42-5.14-35.15-1.06-52.67,.34-1.14,.69-2.27,1.05-3.39-5.27,18.51,6.79,37.74,0,56.06h0Z" style="fill: rgb(38, 50, 56); transform-origin: 291.399px 225.31px;" id="elgwnutlh3lo" class="animable"></path></g><path d="M259.22,313.86c4.24-41.66,.78-84.1-10.12-124.54l-2.27-8.07,2.52,8c11.89,40.21,15.41,83.04,9.87,124.61h0Z" style="fill: rgb(38, 50, 56); transform-origin: 254.305px 247.555px;" id="eljj91k9jg6nq" class="animable"></path><g id="el61vb1b747hv" class="animable" style="transform-origin: 244.513px 117.27px;"><g id="el71d99rexw2e" class="animable" style="transform-origin: 244.513px 117.27px;"><path d="M223.28,21.23c-.72,10.33-8.05,21.15-10.17,31.29-4.19,20-.73,21.45,.53,41.85,.83,13.46-7.08,39.9,4.11,58.33,11.61,19.14,31.34,38.64,35.58,60.61l2.44-.26s21.63-67.66,22.12-83.12c.48-15.46-3.75-37.49-15.66-50.68-11.9-13.19-21.38-12.47-26.85-26.05-5.48-13.58-6.71-19.3-8.59-25.26-1.88-5.96-3.5-6.7-3.5-6.7Z" style="fill: rgb(38, 50, 56); transform-origin: 244.513px 117.27px;" id="elcsy289o8229" class="animable"></path><g id="elgduf7sdxcd6"><g style="opacity: 0.2; transform-origin: 244.513px 117.27px;" class="animable"><path d="M223.28,21.23c-.72,10.33-8.05,21.15-10.17,31.29-4.19,20-.73,21.45,.53,41.85,.83,13.46-7.08,39.9,4.11,58.33,11.61,19.14,31.34,38.64,35.58,60.61l2.44-.26s21.63-67.66,22.12-83.12c.48-15.46-3.75-37.49-15.66-50.68-11.9-13.19-21.38-12.47-26.85-26.05-5.48-13.58-6.71-19.3-8.59-25.26-1.88-5.96-3.5-6.7-3.5-6.7Z" style="fill: rgb(255, 255, 255); transform-origin: 244.513px 117.27px;" id="elbsfew9080nf" class="animable"></path></g></g></g><path d="M254.27,213.21c7.43-31.61,1.87-65.34-10.29-95.06-9.92-22.2-17.32-45.85-19.08-70.22-.59-8.1-.59-16.24-.03-24.34-.79,16.2,.73,32.47,4.31,48.27,3.52,15.83,9.13,31.1,15.71,45.9,12.16,29.87,17.56,63.86,9.38,95.45h0Z" style="fill: rgb(38, 50, 56); transform-origin: 241.315px 118.4px;" id="eldsnyn74fgb8" class="animable"></path><path d="M246.64,124.47c-3.63-18.52,11.14-35.56,6.89-54.09,.73,2.19,1.1,4.49,1.25,6.8,.84,16.3-10.04,30.92-8.14,47.29h0Z" style="fill: rgb(38, 50, 56); transform-origin: 250.443px 97.425px;" id="eloa3mmcow7pp" class="animable"></path><path d="M256.38,165.84c-1.97-8.95-6.67-17.68-14.42-22.76-2.55-1.66-5.46-2.69-8.34-3.86-5.97-2.14-10.9-6.64-13.71-12.32-2.93-5.54-4.69-11.54-6.31-17.51,1.01,2.93,1.98,5.87,3.12,8.75,3.28,8.74,7.93,17.02,17.28,20.16,4.28,1.69,8.81,3.59,12.15,6.96,5.64,5.42,9.08,12.92,10.24,20.59h0Z" style="fill: rgb(38, 50, 56); transform-origin: 234.995px 137.62px;" id="elu92sk02pql" class="animable"></path><path d="M257.75,178.44c3.44-11.55,7.74-22.84,12.01-34.09,4.18-11.21,6.67-23.23,6.23-35.23,1.25,12.04-1.17,24.27-5.29,35.58l-6.53,16.85c-1.61,4.19-4.83,12.68-6.41,16.89h0Z" style="fill: rgb(38, 50, 56); transform-origin: 267.035px 143.78px;" id="elbm45eif2ca9" class="animable"></path></g><path d="M250.26,345.63c18.66-23.19,45.18-39.96,73.99-47.32l5.8-1.32-5.73,1.57c-28.46,8.33-54.45,24.81-74.06,47.07h0Z" style="fill: rgb(38, 50, 56); transform-origin: 290.155px 321.31px;" id="eldf0elojzr8o" class="animable"></path><g id="elhg3x7oyvy2k" class="animable" style="transform-origin: 361.165px 290.427px;"><g id="elsz4vysunuee" class="animable" style="transform-origin: 361.165px 290.427px;"><path d="M415.5,279.86c-5.33,2.58-9.51,8.76-14.44,12.05-9.72,6.47-11.23,4.95-22.31,8.62-7.32,2.42-19.66,12.24-31.82,10.22-12.62-2.09-27.16-8.41-39.72-5.99l-.38-1.35s31.29-25.86,39.39-29.4,20.69-5.98,30.21-2.47c9.53,3.51,11.16,8.69,19.53,8.71,8.37,.02,11.67-.54,15.23-.81,3.56-.27,4.3,.43,4.3,.43Z" style="fill: rgb(38, 50, 56); transform-origin: 361.165px 290.427px;" id="elk6v3ix5sw8c" class="animable"></path><g id="el9u6cpoe1bwj"><g style="opacity: 0.2; transform-origin: 361.165px 290.427px;" class="animable"><path d="M415.5,279.86c-5.33,2.58-9.51,8.76-14.44,12.05-9.72,6.47-11.23,4.95-22.31,8.62-7.32,2.42-19.66,12.24-31.82,10.22-12.62-2.09-27.16-8.41-39.72-5.99l-.38-1.35s31.29-25.86,39.39-29.4,20.69-5.98,30.21-2.47c9.53,3.51,11.16,8.69,19.53,8.71,8.37,.02,11.67-.54,15.23-.81,3.56-.27,4.3,.43,4.3,.43Z" style="fill: rgb(255, 255, 255); transform-origin: 361.165px 290.427px;" id="el2jrbklmxzjq" class="animable"></path></g></g></g><path d="M307.22,304.75c14.9-11.21,34-16.07,52.49-16.03,4.65,.1,9.25,.21,13.87-.02,13.86-.6,27.62-3.49,40.33-9.19-4.14,2.08-8.47,3.81-12.88,5.26-13.29,4.33-27.45,5.43-41.34,4.93-18.35-.13-37.24,4.55-52.47,15.04h0Z" style="fill: rgb(38, 50, 56); transform-origin: 360.565px 292.13px;" id="el7clelkn6ezo" class="animable"></path><path d="M355.77,289.41c8.99-2.73,14.39-11.59,23.32-14.47,1.28-.38,2.59-.66,3.91-.69-10.63,1.98-16.52,13.42-27.23,15.16h0Z" style="fill: rgb(38, 50, 56); transform-origin: 369.385px 281.83px;" id="elkiakq84nk8j" class="animable"></path><path d="M331.75,293.04c7.16-1.93,14.8,.01,19.53,5.87,3.51,4.17,9.04,5.01,14.21,4.92,1.76,.03,3.53-.06,5.31-.1-3.5,.5-7.06,.88-10.65,.54-3.63-.22-7.19-1.94-9.58-4.67-1.24-1.28-2.4-2.59-3.79-3.58-4.3-3.05-9.84-3.71-15.02-2.99h0Z" style="fill: rgb(38, 50, 56); transform-origin: 351.275px 298.359px;" id="elquqmj5n88x" class="animable"></path><path d="M324.77,294.99c3.73-3.55,11.25-10.67,15-14.2,5.12-4.61,11.18-8.46,17.89-10.21-13.16,4.82-21.85,16.37-32.9,24.41h0Z" style="fill: rgb(38, 50, 56); transform-origin: 341.21px 282.785px;" id="elpeuol4xro3d" class="animable"></path></g><path d="M246.53,359.22c-19.61-22.26-45.6-38.73-74.06-47.07l-5.73-1.57,5.8,1.32c28.82,7.36,55.33,24.13,73.99,47.32h0Z" style="fill: rgb(38, 50, 56); transform-origin: 206.635px 334.9px;" id="el4x37hkfy973" class="animable"></path><g id="el3x6i2tlzuau" class="animable" style="transform-origin: 135.635px 304.007px;"><g id="el393y0nzv2yf" class="animable" style="transform-origin: 135.635px 304.007px;"><path d="M81.3,293.44c5.33,2.58,9.51,8.76,14.44,12.05,9.72,6.47,11.23,4.95,22.31,8.62,7.32,2.42,19.66,12.24,31.82,10.22,12.62-2.09,27.16-8.41,39.72-5.99l.38-1.35s-31.29-25.86-39.39-29.4c-8.1-3.54-20.69-5.98-30.21-2.47-9.53,3.51-11.16,8.69-19.53,8.71-8.37,.02-11.67-.54-15.23-.81-3.56-.27-4.3,.43-4.3,.43Z" style="fill: rgb(38, 50, 56); transform-origin: 135.635px 304.007px;" id="elb42purnf0e8" class="animable"></path><g id="elyccfqhhdc4g"><g style="opacity: 0.1; transform-origin: 135.635px 304.007px;" class="animable"><path d="M81.3,293.44c5.33,2.58,9.51,8.76,14.44,12.05,9.72,6.47,11.23,4.95,22.31,8.62,7.32,2.42,19.66,12.24,31.82,10.22,12.62-2.09,27.16-8.41,39.72-5.99l.38-1.35s-31.29-25.86-39.39-29.4c-8.1-3.54-20.69-5.98-30.21-2.47-9.53,3.51-11.16,8.69-19.53,8.71-8.37,.02-11.67-.54-15.23-.81-3.56-.27-4.3,.43-4.3,.43Z" style="fill: rgb(255, 255, 255); transform-origin: 135.635px 304.007px;" id="elj8ma9etfvvi" class="animable"></path></g></g></g><path d="M189.58,318.34c-15.23-10.49-34.12-15.17-52.47-15.04-13.89,.5-28.05-.6-41.34-4.93-4.42-1.45-8.74-3.18-12.88-5.26,12.71,5.7,26.47,8.59,40.33,9.19,4.62,.23,9.23,.12,13.87,.02,18.49-.04,37.59,4.82,52.49,16.03h0Z" style="fill: rgb(38, 50, 56); transform-origin: 136.235px 305.73px;" id="elet94ostm8pb" class="animable"></path><path d="M141.03,303c-10.71-1.74-16.6-13.17-27.23-15.16,1.32,.03,2.63,.31,3.91,.69,8.93,2.88,14.33,11.74,23.32,14.47h0Z" style="fill: rgb(38, 50, 56); transform-origin: 127.415px 295.42px;" id="elr4xlfqkosne" class="animable"></path><path d="M165.04,306.62c-5.17-.73-10.72-.06-15.02,2.99-1.39,.99-2.55,2.3-3.79,3.58-2.39,2.72-5.96,4.44-9.58,4.67-3.59,.34-7.14-.04-10.65-.54,1.77,.04,3.54,.13,5.31,.1,5.17,.08,10.7-.75,14.21-4.92,4.72-5.85,12.37-7.8,19.53-5.87h0Z" style="fill: rgb(38, 50, 56); transform-origin: 145.525px 311.95px;" id="elqoge525mvhq" class="animable"></path><path d="M172.02,308.58c-11.05-8.04-19.73-19.59-32.9-24.41,6.71,1.75,12.77,5.6,17.89,10.21,3.75,3.52,11.28,10.65,15,14.2h0Z" style="fill: rgb(38, 50, 56); transform-origin: 155.57px 296.375px;" id="elylaweg15pv" class="animable"></path></g></g></g><g id="freepik--Fruits--inject-82" class="animable" style="transform-origin: 269.6px 258.593px;"><g id="el4vuc48pry2j" class="animable" style="transform-origin: 412.12px 331.57px;"><g id="elyt34p53oweo"><ellipse cx="412.12" cy="331.57" rx="23.9" ry="19.19" style="fill: rgb(247, 195, 95); transform-origin: 412.12px 331.57px; transform: rotate(-15.03deg);" class="animable"></ellipse></g><g id="elbe4nefdwuys"><ellipse cx="412.12" cy="331.57" rx="23.9" ry="19.19" style="fill: rgb(255, 255, 255); opacity: 0.7; transform-origin: 412.12px 331.57px; transform: rotate(-15.03deg);" class="animable"></ellipse></g><g id="el1cj49xq680g"><path d="M423.74,317.82c.98,3.65-3.43,8-9.86,9.73-6.43,1.73-12.43,.17-13.41-3.48-.98-3.65,3.43-8,9.86-9.73,6.43-1.73,12.43-.17,13.41,3.48Z" style="fill: rgb(255, 255, 255); opacity: 0.1; transform-origin: 412.105px 320.945px;" class="animable"></path></g><g id="elf70x8s8wk47"><path d="M420.82,317.9c.43,1.6-1.51,3.51-4.32,4.26s-5.45,.07-5.88-1.52c-.43-1.6,1.51-3.51,4.32-4.26,2.82-.76,5.45-.07,5.88,1.52Z" style="fill: rgb(255, 255, 255); opacity: 0.1; transform-origin: 415.72px 319.268px;" class="animable"></path></g><g id="el7umsspivc76"><g style="opacity: 0.3; transform-origin: 406.835px 341.803px;" class="animable"><path d="M421.41,344.68c-4.78,3.6-11.35,4.69-17.04,2.84-5.69-1.85-10.35-6.6-12.11-12.32,0,0,4.33,7.72,13.33,9.89,8.75,2.11,15.82-.4,15.82-.4Z" style="fill: rgb(255, 255, 255); transform-origin: 406.835px 341.803px;" id="el1iify1fq3gt" class="animable"></path></g></g><path d="M429.45,323.74c.28,2.84,1.1,5.09,2.71,7.45-2.62-1.21-3.94-4.84-2.71-7.45h0Z" style="fill: rgb(38, 50, 56); transform-origin: 430.573px 327.465px;" id="elqhqded8kyv" class="animable"></path></g><g id="el7yldu0i58bf" class="animable" style="transform-origin: 185.21px 150.94px;"><g id="elbuyr9qpiytu"><ellipse cx="185.21" cy="150.94" rx="19.19" ry="23.9" style="fill: rgb(247, 195, 95); transform-origin: 185.21px 150.94px; transform: rotate(-48.12deg);" class="animable"></ellipse></g><g id="eldb1cnu3bitb"><ellipse cx="185.21" cy="150.94" rx="19.19" ry="23.9" style="fill: rgb(255, 255, 255); opacity: 0.7; transform-origin: 185.21px 150.94px; transform: rotate(-48.12deg);" class="animable"></ellipse></g><g id="elz89zgqcq2y"><path d="M167.34,148.71c2.52-2.81,8.58-1.49,13.54,2.95,4.95,4.44,6.93,10.32,4.4,13.13-2.52,2.81-8.58,1.49-13.54-2.95-4.95-4.44-6.93-10.32-4.4-13.13Z" style="fill: rgb(255, 255, 255); opacity: 0.1; transform-origin: 176.31px 156.75px;" class="animable"></path></g><g id="elpmxzb2pndsp"><path d="M169.01,151.11c1.1-1.23,3.76-.65,5.93,1.29,2.17,1.95,3.03,4.52,1.93,5.76-1.1,1.23-3.76,.65-5.93-1.29-2.17-1.95-3.03-4.52-1.93-5.76Z" style="fill: rgb(255, 255, 255); opacity: 0.1; transform-origin: 172.94px 154.635px;" class="animable"></path></g><g id="el5pq3zqvvlig"><g style="opacity: 0.3; transform-origin: 197.268px 150.8px;" class="animable"><path d="M191.12,136c5.62,2.05,10.12,6.95,11.68,12.73,1.55,5.78,.12,12.28-3.71,16.87,0,0,4.11-7.84,1.01-16.56-3.01-8.48-8.97-13.03-8.97-13.03Z" style="fill: rgb(255, 255, 255); transform-origin: 197.268px 150.8px;" id="elqfpeyq5uqkc" class="animable"></path></g></g><path d="M169.19,140.7c2.22-1.78,3.67-3.71,4.76-6.34,.42,2.86-1.9,5.94-4.76,6.34h0Z" style="fill: rgb(38, 50, 56); transform-origin: 171.595px 137.53px;" id="elbiypptfwasl" class="animable"></path></g><g id="el2ty1td5bkaz" class="animable" style="transform-origin: 300.14px 154.435px;"><path d="M305.36,139.07c6.81,2.31,10,11.07,7.11,19.56-2.88,8.49-10.74,13.49-17.55,11.17s-10-11.07-7.11-19.56c2.88-8.49,10.74-13.49,17.55-11.17Z" style="fill: rgb(247, 195, 95); transform-origin: 300.14px 154.435px;" id="elxmvgi2xi1wo" class="animable"></path><g id="el3n00v4mgl9m"><path d="M305.36,139.07c6.81,2.31,10,11.07,7.11,19.56-2.88,8.49-10.74,13.49-17.55,11.17s-10-11.07-7.11-19.56c2.88-8.49,10.74-13.49,17.55-11.17Z" style="fill: rgb(255, 255, 255); opacity: 0.7; transform-origin: 300.14px 154.435px;" class="animable"></path></g><g id="ele9tpse2psj6"><path d="M296.77,142.68c2.43,.82,3.22,4.96,1.76,9.24-1.45,4.28-4.6,7.08-7.03,6.25-2.43-.83-3.22-4.96-1.76-9.24,1.45-4.28,4.6-7.08,7.03-6.25Z" style="fill: rgb(255, 255, 255); opacity: 0.1; transform-origin: 294.135px 150.425px;" class="animable"></path></g><g id="elmg82s5ibsnr"><path d="M295.72,144.36c1.06,.36,1.41,2.17,.77,4.05-.64,1.87-2.02,3.1-3.08,2.74-1.06-.36-1.41-2.17-.77-4.05s2.02-3.1,3.08-2.74Z" style="fill: rgb(255, 255, 255); opacity: 0.1; transform-origin: 294.565px 147.755px;" class="animable"></path></g><g id="elx1tn0g6fz"><g style="opacity: 0.3; transform-origin: 302.879px 160.83px;" class="animable"><path d="M311.05,154.14c.22,4.06-1.64,8.17-4.84,10.68s-7.63,3.35-11.52,2.18c0,0,5.99,.47,10.61-3.79,4.49-4.14,5.75-9.07,5.75-9.07Z" style="fill: rgb(255, 255, 255); transform-origin: 302.879px 160.83px;" id="elr1orepf20td" class="animable"></path></g></g><path d="M302.27,141.7c1.87,.73,3.23,1.06,5.22,1.28-1.61,1.26-4.38,.57-5.22-1.28h0Z" style="fill: rgb(38, 50, 56); transform-origin: 304.88px 142.66px;" id="el2mwarbw0fyl" class="animable"></path></g><g id="eloq0c8zthluo" class="animable" style="transform-origin: 138.95px 373.84px;"><g id="elczi7cbimve"><ellipse cx="138.95" cy="373.84" rx="26.79" ry="21.5" style="fill: rgb(247, 195, 95); transform-origin: 138.95px 373.84px; transform: rotate(-2.5deg);" class="animable"></ellipse></g><g id="elxgkq6phxuk"><ellipse cx="138.95" cy="373.84" rx="26.79" ry="21.5" style="fill: rgb(255, 255, 255); opacity: 0.7; transform-origin: 138.95px 373.84px; transform: rotate(-2.5deg);" class="animable"></ellipse></g><g id="eldwuxoo82uj"><ellipse cx="135.38" cy="362.48" rx="13.5" ry="7.66" style="fill: rgb(255, 255, 255); opacity: 0.1; transform-origin: 135.38px 362.48px; transform: rotate(-2.5deg);" class="animable"></ellipse></g><g id="ele6hpduf18e"><path d="M125.03,362.18c.08,1.85,2.79,3.24,6.06,3.1,3.26-.14,5.84-1.76,5.76-3.61-.08-1.85-2.79-3.24-6.06-3.1-3.26,.14-5.84,1.76-5.76,3.61Z" style="fill: rgb(255, 255, 255); opacity: 0.1; transform-origin: 130.94px 361.925px;" class="animable"></path></g><g id="eldyt2uihfvxt"><g style="opacity: 0.3; transform-origin: 147.415px 381.582px;" class="animable"><path d="M133.44,390.99c6.33,2.23,13.71,1.18,19.17-2.72s8.84-10.55,8.78-17.25c0,0-2.02,9.71-10.91,15.06-8.64,5.2-17.04,4.91-17.04,4.91Z" style="fill: rgb(255, 255, 255); transform-origin: 147.415px 381.582px;" id="elfyrd8ha9arl" class="animable"></path></g></g><path d="M117.79,371.32c2.11,2.42,1.93,6.65-.38,8.87,1-3.01,1.13-5.79,.38-8.87h0Z" style="fill: rgb(38, 50, 56); transform-origin: 118.337px 375.755px;" id="el2axu1ct21xc" class="animable"></path></g><g id="elct15ckyka9" class="animable" style="transform-origin: 118.13px 246.59px;"><g id="eldoyjt0t3pqg"><ellipse cx="118.13" cy="246.59" rx="11.99" ry="14.94" style="fill: rgb(247, 195, 95); transform-origin: 118.13px 246.59px; transform: rotate(-55.31deg);" class="animable"></ellipse></g><g id="elku9mf8nefi"><ellipse cx="118.13" cy="246.59" rx="11.99" ry="14.94" style="fill: rgb(255, 255, 255); opacity: 0.7; transform-origin: 118.13px 246.59px; transform: rotate(-55.31deg);" class="animable"></ellipse></g><g id="elpa4p0o7o5zb"><path d="M106.88,246.61c1.34-1.94,5.21-1.6,8.63,.77s5.1,5.86,3.76,7.8c-1.34,1.94-5.21,1.6-8.63-.77s-5.1-5.86-3.76-7.8Z" style="fill: rgb(255, 255, 255); opacity: 0.1; transform-origin: 113.075px 250.895px;" class="animable"></path></g><g id="elavc94790p"><path d="M108.1,247.96c.59-.85,2.28-.7,3.78,.34,1.5,1.04,2.24,2.57,1.65,3.42-.59,.85-2.28,.7-3.78-.34-1.5-1.04-2.24-2.57-1.65-3.42Z" style="fill: rgb(255, 255, 255); opacity: 0.1; transform-origin: 110.815px 249.84px;" class="animable"></path></g><g id="elhnidn9e5gd"><g style="opacity: 0.3; transform-origin: 125.175px 245.725px;" class="animable"><path d="M120.63,236.86c3.65,.83,6.82,3.52,8.24,6.98,1.42,3.46,1.04,7.61-.98,10.75,0,0,1.93-5.19-.67-10.35-2.53-5.03-6.58-7.38-6.58-7.38Z" style="fill: rgb(255, 255, 255); transform-origin: 125.175px 245.725px;" id="elo2a76xqn0dn" class="animable"></path></g></g><path d="M107.39,241.49c1.09-1.52,1.7-2.59,2.46-4.3,.77,1.74-.57,4.08-2.46,4.3h0Z" style="fill: rgb(38, 50, 56); transform-origin: 108.731px 239.34px;" id="el5u4bc5cai42" class="animable"></path></g></g><g id="freepik--Coffee_Beans--inject-82" class="animable" style="transform-origin: 273.457px 313.62px;"><g id="elstss8q2790r" class="animable" style="transform-origin: 276.176px 253.81px;"><g id="elljl2e40qz99" class="animable" style="transform-origin: 276.176px 253.81px;"><path d="M317.2,227.87c.17,.37,16.14,36.07-19.82,59.82-39.83,26.31-61.73-6.47-61.73-6.47l81.55-53.36Z" style="fill: rgb(247, 195, 95); transform-origin: 278.264px 262.887px;" id="elwaozhb0131" class="animable"></path><g id="elnbuk78ebzub"><path d="M317.2,227.87c.17,.37,16.14,36.07-19.82,59.82-39.83,26.31-61.73-6.47-61.73-6.47l81.55-53.36Z" style="opacity: 0.3; transform-origin: 278.264px 262.887px;" class="animable"></path></g><path d="M311.73,220.96s17.73,10.25-4.71,39.01c-22.44,28.76-48.15,33.59-61.65,27.92-13.5-5.67-10.18-12.33-10.18-12.33,0,0-3.91-1.27-3.71-11.47,.2-10.2,7.13-31.91,33.98-46.43,23.78-12.85,43.17-8.95,46.27,3.29Z" style="fill: rgb(247, 195, 95); transform-origin: 274.926px 249.84px;" id="el60k71be8r0l" class="animable"></path><g id="elvatzl5lpopa"><path d="M311.73,220.65c-6.12,12.92-17.99,22.86-32.08,24.93-4.07,.6-8.24,.69-12.38,1.46-4.28,.77-8.47,2.51-12.07,4.95-3.56,2.36-6.72,5.49-9.34,8.81-3.91,4.9-7.52,10.02-10.86,15.32,4.32-4.52,8.41-9.18,12.75-13.65,4.04-4.35,9.01-8.14,14.54-10.21,7.56-2.94,16.51-1.64,24.25-4.56,12.04-4.18,22.09-14.79,25.2-27.06h0Z" style="opacity: 0.3; transform-origin: 273.37px 248.38px;" class="animable"></path></g><g id="elpdbkvme597"><g style="opacity: 0.3; transform-origin: 254.856px 269.209px;" class="animable"><path d="M245.63,277.64l-.02-.02c-1.07-.92-.99-2.86,.09-4.32,3.56-4.81,8.6-9.59,13.3-12.2,1.34-.74,2.77-1.4,4.12-1.15,.5,.09,.95,.34,1.26,.74,1.02,1.3,.24,3.3-.62,4.95-1.68,3.27-3.78,6.42-6.43,8.86-2.66,2.43-5.93,4.08-8.94,4.02-1.02-.02-2.02-.25-2.76-.88Z" style="fill: rgb(255, 255, 255); transform-origin: 254.856px 269.209px;" id="elprwyj7ogxcp" class="animable"></path></g></g></g><g id="elgc56edtabhq"><path d="M235.5,268.97c-.27-13.68,6.06-27.14,16.49-35.94,1.49-1.24,3.03-2.41,4.63-3.5-.73,.64-1.46,1.27-2.2,1.89-10.94,9.47-17.92,23.09-18.93,37.56h0Z" style="fill: rgb(255, 255, 255); opacity: 0.3; transform-origin: 246.055px 249.255px;" class="animable"></path></g><g id="elegncwywn03c"><path d="M262.04,226.01c1.78-1.89,3.93-3.21,6.43-3.92-1.78,1.89-3.93,3.2-6.43,3.92h0Z" style="fill: rgb(255, 255, 255); opacity: 0.3; transform-origin: 265.255px 224.05px;" class="animable"></path></g><g id="el9o9l7h3938"><path d="M275.6,253.41c10.48,.15,20.86-4.08,28.25-11.49,.93-.93,2.18-2.35,3.01-3.35-.41,.63-.82,1.26-1.25,1.89l-1.4,1.79-1.55,1.67c-6.94,7.03-17.23,10.8-27.07,9.48h0Z" style="fill: rgb(255, 255, 255); opacity: 0.3; transform-origin: 291.225px 246.115px;" class="animable"></path></g></g><g id="eliilqiq03y9" class="animable" style="transform-origin: 201.851px 314.864px;"><g id="el0076uiopc1pjl" class="animable" style="transform-origin: 201.851px 314.864px;"><path d="M241.43,304.83c.02,.34,1.87,32.78-33.11,41.16-38.74,9.28-46.07-22.55-46.07-22.55l79.18-18.61Z" style="fill: rgb(247, 195, 95); transform-origin: 201.851px 326.258px;" id="elly99ke4kwhl" class="animable"></path><g id="elo30sslamm49"><path d="M241.43,304.83c.02,.34,1.87,32.78-33.11,41.16-38.74,9.28-46.07-22.55-46.07-22.55l79.18-18.61Z" style="opacity: 0.3; transform-origin: 201.851px 326.258px;" class="animable"></path></g><path d="M238.74,298.6s10.82,13.09-14.93,28.96c-25.75,15.87-47.12,12.2-55.97,3.9-8.85-8.3-4.35-12.52-4.35-12.52,0,0-2.67-2.11,.43-9.98,3.1-7.87,14.75-22.74,39.82-26.27,22.19-3.12,36.14,5.51,35,15.92Z" style="fill: rgb(247, 195, 95); transform-origin: 201.671px 310.309px;" id="elmfzo70t13j" class="animable"></path><g id="els4mysrsi40p"><path d="M239.37,298.37c-8.53,8.32-20.71,12.62-32.35,10.12-3.36-.72-6.66-1.87-10.12-2.48-3.58-.65-7.36-.52-10.89,.34-3.48,.8-6.85,2.33-9.87,4.16-4.48,2.69-8.79,5.64-12.95,8.81,4.69-2.27,9.25-4.72,13.94-6.95,4.43-2.22,9.41-3.73,14.35-3.73,6.77-.09,13.41,3.55,20.32,3.53,10.65,.25,21.59-5.11,27.58-13.8h0Z" style="opacity: 0.3; transform-origin: 201.285px 308.845px;" class="animable"></path></g><g id="elx4g0ksfzhe"><g style="opacity: 0.3; transform-origin: 205.498px 294.341px;" class="animable"><path d="M177.6,298.54c.39-.9,1.22-1.42,2.03-1.91,8.65-5.2,17.9-9.78,27.77-11.18,7.94-1.13,16.37,.06,22.93,4.14,4.18,2.6,4.35,8.8,.12,11.67-.14,.09-.28,.18-.42,.27-5.63,3.36-12.67,2.16-18.7,.14-6.03-2.02-12.07-4.79-18.51-4.25-4.32,.36-8.42,2.21-12.68,3.13-.88,.19-1.93,.3-2.45-.47-.31-.44-.3-1.03-.08-1.54Z" style="fill: rgb(255, 255, 255); transform-origin: 205.498px 294.341px;" id="eljpkyjxlp9s" class="animable"></path></g></g><g id="el9xzxisa1noa"><g style="opacity: 0.3; transform-origin: 172.521px 304.418px;" class="animable"><path d="M171.4,302.86l.25-.15c1.16-.56,2.76,.46,2.73,1.75s-1.66,2.25-2.8,1.63c-1.14-.61-1.24-2.5-.18-3.24Z" style="fill: rgb(255, 255, 255); transform-origin: 172.521px 304.418px;" id="el3e63xyv9vbb" class="animable"></path></g></g><g id="elol5y247dva"><g style="opacity: 0.3; transform-origin: 180.204px 320.474px;" class="animable"><path d="M167.67,325.88l-.03-.03c-1.21-1.55-.88-3.79,.64-5.03,5.02-4.1,11.88-7.53,18.05-8.55,1.76-.29,3.61-.45,5.26,.44,.61,.33,1.14,.81,1.48,1.41,1.11,1.96-.12,3.97-1.38,5.54-2.5,3.11-5.49,5.9-9.09,7.61-3.6,1.7-7.87,2.23-11.61,.85-1.26-.47-2.48-1.17-3.32-2.22Z" style="fill: rgb(255, 255, 255); transform-origin: 180.204px 320.474px;" id="el5xxhtwhks39" class="animable"></path></g></g></g><g id="eljsrxow2gyvf"><path d="M207.39,330.76c11.27-3.45,21.37-10.42,28.51-19.8,.9-1.17,2.11-2.92,2.91-4.14-.39,.75-.78,1.5-1.19,2.25-6.39,11.04-17.68,19.29-30.24,21.69h0Z" style="fill: rgb(255, 255, 255); opacity: 0.3; transform-origin: 223.095px 318.79px;" class="animable"></path></g></g><g id="elg4cc2hj3744" class="animable" style="transform-origin: 241.455px 385.406px;"><g id="el9xyis6ze6j5" class="animable" style="transform-origin: 241.455px 385.406px;"><path d="M280.95,376.99c0,.34,.55,32.46-34.36,39.36-38.65,7.63-44.63-24.11-44.63-24.11l78.99-15.24Z" style="fill: rgb(247, 195, 95); transform-origin: 241.455px 397.262px;" id="elkazsfynrm4" class="animable"></path><g id="elm3a9clet2h"><path d="M280.95,376.99c0,.34,.55,32.46-34.36,39.36-38.65,7.63-44.63-24.11-44.63-24.11l78.99-15.24Z" style="opacity: 0.3; transform-origin: 241.455px 397.262px;" class="animable"></path></g><path d="M278.54,370.73s10.17,13.36-15.9,28.02-47.05,10.18-55.47,1.62c-8.42-8.56-3.8-12.54-3.8-12.54,0,0-2.55-2.19,.82-9.85,3.38-7.66,15.48-21.89,40.39-24.37,22.06-2.2,35.49,6.88,33.96,17.12Z" style="fill: rgb(247, 195, 95); transform-origin: 241.299px 380.789px;" id="elwg7ezfav5c" class="animable"></path><g id="elchga7d6gqm6"><path d="M279.16,370.53c-8.76,7.88-20.97,11.65-32.37,8.72-3.29-.85-6.51-2.11-9.91-2.86-3.51-.79-7.26-.8-10.78-.1-3.47,.65-6.86,2.03-9.92,3.72-4.54,2.48-8.92,5.22-13.14,8.19,4.73-2.06,9.33-4.3,14.05-6.31,4.46-2.02,9.45-3.31,14.32-3.12,6.7,.18,13.11,4.04,19.94,4.29,10.51,.67,21.54-4.19,27.8-12.54h0Z" style="opacity: 0.3; transform-origin: 241.1px 379.36px;" class="animable"></path></g><g id="elkun8h0od1c"><g style="opacity: 0.3; transform-origin: 245.728px 365.655px;" class="animable"><path d="M218.12,368.23c.42-.87,1.27-1.36,2.08-1.8,8.75-4.79,18.08-8.95,27.89-9.95,7.89-.8,16.17,.71,22.49,5,4.03,2.73,3.95,8.86-.35,11.54-.14,.09-.28,.17-.43,.25-5.7,3.09-12.61,1.63-18.48-.61-5.88-2.24-11.74-5.21-18.12-4.93-4.28,.19-8.41,1.85-12.66,2.59-.87,.15-1.92,.22-2.41-.56-.28-.45-.26-1.03-.02-1.53Z" style="fill: rgb(255, 255, 255); transform-origin: 245.728px 365.655px;" id="el2xm4cjwyr5d" class="animable"></path></g></g><g id="eldqd9lwl7586"><g style="opacity: 0.3; transform-origin: 212.865px 373.845px;" class="animable"><path d="M211.82,372.26l.25-.13c1.17-.51,2.71,.56,2.63,1.84-.08,1.28-1.73,2.15-2.83,1.5s-1.13-2.52-.05-3.21Z" style="fill: rgb(255, 255, 255); transform-origin: 212.865px 373.845px;" id="elz235xtbaw5l" class="animable"></path></g></g><g id="el46p66o8ssln"><g style="opacity: 0.3; transform-origin: 219.855px 390.073px;" class="animable"><path d="M207.21,394.86l-.02-.03c-1.14-1.58-.72-3.78,.84-4.95,5.12-3.85,12.04-6.97,18.18-7.74,1.75-.22,3.59-.3,5.18,.64,.59,.35,1.09,.84,1.41,1.45,1.02,1.98-.27,3.92-1.58,5.42-2.59,2.97-5.66,5.61-9.29,7.15-3.63,1.54-7.87,1.89-11.51,.37-1.23-.51-2.4-1.25-3.19-2.33Z" style="fill: rgb(255, 255, 255); transform-origin: 219.855px 390.073px;" id="eldzp7kup4j36" class="animable"></path></g></g></g><g id="elqawthcrnlli"><path d="M246.28,401.26c11.27-2.96,21.53-9.46,28.96-18.43,.94-1.12,2.2-2.8,3.05-3.98-.41,.73-.83,1.46-1.26,2.18-6.74,10.66-18.24,18.37-30.75,20.23h0Z" style="fill: rgb(255, 255, 255); opacity: 0.3; transform-origin: 262.285px 390.055px;" class="animable"></path></g></g><g id="el1c1567txann" class="animable" style="transform-origin: 183.696px 241.196px;"><g id="el0kewkyptnpui" class="animable" style="transform-origin: 183.696px 241.196px;"><path d="M205.16,255.19c-.15,.16-14.53,15.62-34.2,2.97-21.77-14-10.14-31.75-10.14-31.75l44.33,28.77Z" style="fill: rgb(247, 195, 95); transform-origin: 181.438px 244.771px;" id="elkn79vu4o9x8" class="animable"></path><g id="elp0ejkrbxo9h"><path d="M205.16,255.19c-.15,.16-14.53,15.62-34.2,2.97-21.77-14-10.14-31.75-10.14-31.75l44.33,28.77Z" style="opacity: 0.3; transform-origin: 181.438px 244.771px;" class="animable"></path></g><path d="M206.87,251.13s-1.27,10.96-20.29,6.02c-19.02-4.94-26.91-16.62-26.99-24.5-.09-7.89,3.92-7.67,3.92-7.67,0,0-.21-2.2,4.88-4.29s17.3-3.31,30.22,6.87c11.44,9.01,13.66,19.43,8.27,23.58Z" style="fill: rgb(247, 195, 95); transform-origin: 184.632px 238.845px;" id="el3frn5t78kao" class="animable"></path><g id="eljq4kfx632ug"><path d="M207.26,251.32c-7.74-.26-15.23-4.04-19.29-10.62-1.17-1.9-2.12-3.97-3.39-5.87-1.3-1.97-3.07-3.69-5.06-4.96-1.94-1.27-4.17-2.17-6.39-2.76-3.28-.89-6.6-1.59-9.95-2.11,3.17,1.18,6.37,2.21,9.53,3.42,3.03,1.08,5.98,2.74,8.2,5.05,3.09,3.14,4.37,7.89,7.48,11.12,4.67,5.11,12.11,7.83,18.87,6.73h0Z" style="opacity: 0.3; transform-origin: 185.22px 238.281px;" class="animable"></path></g><g id="el5fbr1xnnv7j"><g style="opacity: 0.3; transform-origin: 193.06px 235.424px;" class="animable"><path d="M179.41,222.42c.59-.22,1.22-.06,1.81,.1,6.32,1.72,12.64,4,17.73,8,4.1,3.21,7.33,7.71,8.37,12.61,.66,3.13-2.17,6-5.42,5.3-.11-.02-.21-.05-.32-.08-4.1-1.13-6.71-4.97-8.47-8.71s-3.18-7.82-6.33-10.59c-2.11-1.86-4.82-2.96-7.17-4.54-.48-.33-1.01-.77-.89-1.36,.07-.34,.35-.61,.69-.73Z" style="fill: rgb(255, 255, 255); transform-origin: 193.06px 235.424px;" id="elfs568qolq8o" class="animable"></path></g></g><g id="eltmozbipjb1"><g style="opacity: 0.3; transform-origin: 174.333px 222.641px;" class="animable"><path d="M174.6,221.45l.18,.05c.79,.29,1.03,1.5,.41,2.07-.62,.57-1.8,.23-2.03-.58-.22-.81,.61-1.71,1.44-1.54Z" style="fill: rgb(255, 255, 255); transform-origin: 174.333px 222.641px;" id="ellcxn0jh3mae" class="animable"></path></g></g><g id="elvdkwv02rsgf"><g style="opacity: 0.3; transform-origin: 170.615px 233.324px;" class="animable"><path d="M162.12,230.05v-.03c.18-1.26,1.39-2.11,2.65-1.96,4.18,.51,8.87,2.19,12.13,4.62,.93,.69,1.84,1.49,2.16,2.66,.12,.43,.13,.9,0,1.33-.42,1.4-1.91,1.73-3.22,1.84-2.58,.23-5.24,.08-7.66-.85-2.42-.92-4.59-2.69-5.62-5.07-.35-.8-.57-1.69-.45-2.56Z" style="fill: rgb(255, 255, 255); transform-origin: 170.615px 233.324px;" id="elvx29y8y37vb" class="animable"></path></g></g></g><g id="elrwqjg6mulu"><path d="M177.7,250.88c6.77,3.53,14.49,5.12,22.09,4.39,.96-.08,2.32-.27,3.27-.41-.52,.18-1.05,.34-1.58,.5-8.03,2.16-17.12,.55-23.78-4.48h0Z" style="fill: rgb(255, 255, 255); opacity: 0.3; transform-origin: 190.38px 253.588px;" class="animable"></path></g></g><g id="el9ph7x2hx8t" class="animable" style="transform-origin: 366.846px 255.539px;"><g id="el4hxetf267ij" class="animable" style="transform-origin: 366.846px 255.539px;"><path d="M349.19,269.42c.14,.13,13.76,12.51,29.93,.1,17.9-13.75,6.5-28.32,6.5-28.32l-36.43,28.22Z" style="fill: rgb(247, 195, 95); transform-origin: 369.194px 258.119px;" id="elxonaaviz87a" class="animable"></path><g id="elq21v1857v3h"><path d="M349.19,269.42c.14,.13,13.76,12.51,29.93,.1,17.9-13.75,6.5-28.32,6.5-28.32l-36.43,28.22Z" style="opacity: 0.3; transform-origin: 369.194px 258.119px;" class="animable"></path></g><path d="M347.41,266.01s1.9,9.43,18.07,3.75,22.17-16.39,21.67-23.25c-.5-6.86-3.96-6.38-3.96-6.38,0,0,.02-1.93-4.55-3.37-4.57-1.44-15.27-1.61-25.76,8.16-9.29,8.66-10.46,17.87-5.48,21.09Z" style="fill: rgb(247, 195, 95); transform-origin: 365.837px 253.809px;" id="eljzjrydvfb8" class="animable"></path><g id="elizmhesx47sq"><path d="M347.09,266.21c6.71-.79,12.94-4.62,15.99-10.63,.88-1.74,1.55-3.6,2.52-5.34,.99-1.81,2.4-3.43,4.03-4.67,1.59-1.24,3.47-2.19,5.35-2.86,2.78-1.01,5.62-1.86,8.49-2.56-2.67,1.25-5.38,2.39-8.03,3.66-2.56,1.16-5,2.81-6.76,4.98-2.45,2.95-3.22,7.17-5.69,10.2-3.69,4.78-9.95,7.68-15.91,7.22h0Z" style="opacity: 0.3; transform-origin: 365.275px 253.204px;" class="animable"></path></g><g id="elnz1yofvgpmb"><g style="opacity: 0.3; transform-origin: 358.125px 251.245px;" class="animable"><path d="M369.18,239.07c-.53-.15-1.06,.03-1.56,.21-5.37,1.95-10.69,4.39-14.83,8.24-3.33,3.09-5.81,7.23-6.36,11.57-.35,2.77,2.32,5.05,5.09,4.21,.09-.03,.18-.06,.27-.09,3.48-1.28,5.47-4.81,6.73-8.18,1.26-3.37,2.2-7.02,4.73-9.66,1.7-1.77,3.98-2.92,5.9-4.47,.4-.32,.82-.74,.67-1.25-.09-.29-.35-.5-.65-.59Z" style="fill: rgb(255, 255, 255); transform-origin: 358.125px 251.245px;" id="el402u8qaegin" class="animable"></path></g></g><g id="elloz2lufq4fb"><g style="opacity: 0.3; transform-origin: 373.632px 238.909px;" class="animable"><path d="M373.3,237.88l-.15,.06c-.66,.31-.78,1.38-.2,1.83,.58,.45,1.58,.07,1.72-.65,.14-.72-.66-1.44-1.36-1.23Z" style="fill: rgb(255, 255, 255); transform-origin: 373.632px 238.909px;" id="elfkhl2aefq3a" class="animable"></path></g></g><g id="elmrg8vqsc0s"><g style="opacity: 0.3; transform-origin: 377.622px 247.842px;" class="animable"><path d="M384.77,244.45v-.02c-.25-1.08-1.36-1.74-2.45-1.51-3.59,.75-7.55,2.55-10.2,4.9-.76,.67-1.49,1.43-1.68,2.47-.07,.38-.05,.79,.09,1.15,.47,1.19,1.79,1.36,2.93,1.37,2.26,0,4.56-.31,6.59-1.29,2.04-.98,3.79-2.67,4.51-4.81,.25-.72,.37-1.51,.21-2.25Z" style="fill: rgb(255, 255, 255); transform-origin: 377.622px 247.842px;" id="elak211jas3dk" class="animable"></path></g></g></g><g id="elci7p123jzvu"><path d="M372.75,263.68c-5.68,5.21-14.31,7.32-21.75,5.3,7.69,.56,15.18-1.26,21.75-5.3h0Z" style="fill: rgb(255, 255, 255); opacity: 0.3; transform-origin: 361.875px 266.708px;" class="animable"></path></g></g><g id="elprwx35g3s1o" class="animable" style="transform-origin: 324.568px 334.902px;"><g id="el3req4f2gbik" class="animable" style="transform-origin: 324.568px 334.902px;"><path d="M287.01,314.21c-.12,.33-11.25,32.47,21.59,50.9,36.36,20.41,52.83-9.55,52.83-9.55l-74.41-41.35Z" style="fill: rgb(247, 195, 95); transform-origin: 323.264px 343.22px;" id="elie96vgzf92" class="animable"></path><g id="elyi3r3r9c1t"><path d="M287.01,314.21c-.12,.33-11.25,32.47,21.59,50.9,36.36,20.41,52.83-9.55,52.83-9.55l-74.41-41.35Z" style="opacity: 0.3; transform-origin: 323.264px 343.22px;" class="animable"></path></g><path d="M291.5,308.71s-14.63,10.09,6.76,33.42c21.39,23.34,43.96,25.74,55.25,19.91,11.29-5.83,7.96-11.36,7.96-11.36,0,0,3.29-1.36,2.42-10.18-.87-8.81-8.36-27.11-32.59-37.82-21.46-9.48-37.96-4.77-39.79,6.03Z" style="fill: rgb(247, 195, 95); transform-origin: 325.327px 331.15px;" id="elbegxfcbhd2" class="animable"></path><g id="elozra0o2o1y"><path d="M290.94,308.3c6.22,10.81,17.25,18.62,29.69,19.43,3.59,.23,7.24,.02,10.9,.39,3.79,.37,7.56,1.58,10.87,3.45,3.27,1.8,6.24,4.3,8.75,7.01,3.74,3.99,7.25,8.19,10.52,12.57-4.07-3.63-7.96-7.4-12.06-10.98-3.82-3.5-8.41-6.45-13.38-7.86-6.8-2.02-14.52-.26-21.47-2.25-10.79-2.79-20.28-11.31-23.83-21.77h0Z" style="opacity: 0.3; transform-origin: 326.3px 329.72px;" class="animable"></path></g><g id="ela4gyadhd0t5"><g style="opacity: 0.3; transform-origin: 325.233px 314.427px;" class="animable"><path d="M353.09,326.1c-.13-1.01-.83-1.78-1.5-2.5-7.22-7.7-15.23-14.96-24.77-19.19-7.67-3.4-16.5-4.61-24.27-2.38-4.96,1.42-6.89,7.61-3.45,11.72,.11,.13,.23,.27,.35,.39,4.71,4.99,12.14,5.79,18.79,5.48,6.65-.31,13.52-1.38,19.85,1.01,4.25,1.6,7.85,4.63,11.87,6.78,.83,.44,1.86,.85,2.6,.23,.43-.36,.6-.95,.53-1.53Z" style="fill: rgb(255, 255, 255); transform-origin: 325.233px 314.427px;" id="elkqagr4cv7k" class="animable"></path></g></g><g id="el59g5wtzrr3"><g style="opacity: 0.3; transform-origin: 356.528px 333.512px;" class="animable"><path d="M358.09,332.22l-.21-.22c-1.01-.9-2.91-.33-3.25,.98-.34,1.31,1.03,2.74,2.35,2.44,1.32-.29,1.97-2.16,1.11-3.21Z" style="fill: rgb(255, 255, 255); transform-origin: 356.528px 333.512px;" id="el1ulx3yzhc8p" class="animable"></path></g></g><g id="elv4jt5fo1ce"><g style="opacity: 0.3; transform-origin: 344.413px 347.025px;" class="animable"><path d="M355.28,356.47l.03-.02c1.66-1.21,1.97-3.56,.79-5.25-3.88-5.56-9.81-10.97-15.73-13.77-1.69-.8-3.51-1.48-5.42-1.06-.71,.16-1.38,.49-1.89,1-1.68,1.66-1.02,4.03-.19,5.97,1.63,3.84,3.84,7.51,6.99,10.26,3.14,2.74,7.29,4.49,11.45,4.17,1.41-.11,2.83-.47,3.98-1.29Z" style="fill: rgb(255, 255, 255); transform-origin: 344.413px 347.025px;" id="ely8dp3pzimr" class="animable"></path></g></g></g><g id="eleuqy42j3t9c"><path d="M289.99,319.61c4.02,10.67,11,20.16,20.06,27.08,1.13,.87,2.82,2.05,3.99,2.85-.73-.38-1.45-.76-2.17-1.16-10.66-6.21-18.83-16.79-21.88-28.76h0Z" style="fill: rgb(255, 255, 255); opacity: 0.3; transform-origin: 302.015px 334.575px;" class="animable"></path></g></g></g><defs>     <filter id="active" height="200%">         <feMorphology in="SourceAlpha" result="DILATED" operator="dilate" radius="2"></feMorphology>                <feFlood flood-color="#32DFEC" flood-opacity="1" result="PINK"></feFlood>        <feComposite in="PINK" in2="DILATED" operator="in" result="OUTLINE"></feComposite>        <feMerge>            <feMergeNode in="OUTLINE"></feMergeNode>            <feMergeNode in="SourceGraphic"></feMergeNode>        </feMerge>    </filter>    <filter id="hover" height="200%">        <feMorphology in="SourceAlpha" result="DILATED" operator="dilate" radius="2"></feMorphology>                <feFlood flood-color="#ff0000" flood-opacity="0.5" result="PINK"></feFlood>        <feComposite in="PINK" in2="DILATED" operator="in" result="OUTLINE"></feComposite>        <feMerge>            <feMergeNode in="OUTLINE"></feMergeNode>            <feMergeNode in="SourceGraphic"></feMergeNode>        </feMerge>            <feColorMatrix type="matrix" values="0   0   0   0   0                0   1   0   0   0                0   0   0   0   0                0   0   0   1   0 "></feColorMatrix>    </filter></defs></svg>